REM DIRINDEX 1\6,1\2\7,1\2\8,1\2\9,1\3\10,1\3\11,1\4\12,1\4\13,1\4\14,1\5\15,1\5\16,1\5\17
REM DIRNAME folder01,folder02,folder03,folder04,folder05,folder06,folder07,folder08,folder09,folder10,folder11,folder12,folder13,folder14,folder15,folder16,folder17
TITLE ""
FILE "P2Q_j_1366-1379.mp3" MP3
  TRACK 01 AUDIO
    TITLE "12:cjc040_0843"
    INDEX 01 00:00:00
  TRACK 02 AUDIO
    TITLE "0:"
    INDEX 01 00:01:46
  TRACK 03 AUDIO
    TITLE "13:cjc040_0844"
    INDEX 01 00:02:26
  TRACK 04 AUDIO
    TITLE "0:"
    INDEX 01 00:03:51
  TRACK 05 AUDIO
    TITLE "14:cjc040_0845"
    INDEX 01 00:04:27
  TRACK 06 AUDIO
    TITLE "0:"
    INDEX 01 00:09:63
  TRACK 07 AUDIO
    TITLE "12:cjc040_0846"
    INDEX 01 00:10:41
  TRACK 08 AUDIO
    TITLE "0:"
    INDEX 01 00:11:72
  TRACK 09 AUDIO
    TITLE "13:cjc040_0847"
    INDEX 01 00:12:52
  TRACK 10 AUDIO
    TITLE "0:"
    INDEX 01 00:15:28
  TRACK 11 AUDIO
    TITLE "14:cjc040_0848"
    INDEX 01 00:16:08
  TRACK 12 AUDIO
    TITLE "0:"
    INDEX 01 00:21:29
  TRACK 13 AUDIO
    TITLE "12:cjc040_0849"
    INDEX 01 00:22:09
  TRACK 14 AUDIO
    TITLE "0:"
    INDEX 01 00:23:36
  TRACK 15 AUDIO
    TITLE "13:cjc040_0850"
    INDEX 01 00:24:20
  TRACK 16 AUDIO
    TITLE "0:"
    INDEX 01 00:25:31
  TRACK 17 AUDIO
    TITLE "14:cjc040_0851"
    INDEX 01 00:26:13
  TRACK 18 AUDIO
    TITLE "0:"
    INDEX 01 00:30:38
  TRACK 19 AUDIO
    TITLE "12:cjc040_0852"
    INDEX 01 00:31:20
  TRACK 20 AUDIO
    TITLE "0:"
    INDEX 01 00:32:74
  TRACK 21 AUDIO
    TITLE "13:cjc040_0853"
    INDEX 01 00:33:58
  TRACK 22 AUDIO
    TITLE "0:"
    INDEX 01 00:35:19
  TRACK 23 AUDIO
    TITLE "14:cjc040_0854"
    INDEX 01 00:35:70
  TRACK 24 AUDIO
    TITLE "0:"
    INDEX 01 00:41:12
  TRACK 25 AUDIO
    TITLE "12:cjc040_0855"
    INDEX 01 00:41:71
  TRACK 26 AUDIO
    TITLE "0:"
    INDEX 01 00:44:01
  TRACK 27 AUDIO
    TITLE "13:cjc040_0856"
    INDEX 01 00:44:54
  TRACK 28 AUDIO
    TITLE "0:"
    INDEX 01 00:45:71
  TRACK 29 AUDIO
    TITLE "14:cjc040_0857"
    INDEX 01 00:46:41
  TRACK 30 AUDIO
    TITLE "0:"
    INDEX 01 00:50:46
  TRACK 31 AUDIO
    TITLE "12:cjc040_0858"
    INDEX 01 00:51:24
  TRACK 32 AUDIO
    TITLE "0:"
    INDEX 01 00:53:00
  TRACK 33 AUDIO
    TITLE "13:cjc040_0859"
    INDEX 01 00:53:53
  TRACK 34 AUDIO
    TITLE "0:"
    INDEX 01 00:55:24
  TRACK 35 AUDIO
    TITLE "14:cjc040_0860"
    INDEX 01 00:56:02
  TRACK 36 AUDIO
    TITLE "0:"
    INDEX 01 01:00:74
  TRACK 37 AUDIO
    TITLE "12:cjc040_0861"
    INDEX 01 01:01:50
  TRACK 38 AUDIO
    TITLE "0:"
    INDEX 01 01:03:06
  TRACK 39 AUDIO
    TITLE "13:cjc040_0862"
    INDEX 01 01:03:69
  TRACK 40 AUDIO
    TITLE "0:"
    INDEX 01 01:06:57
  TRACK 41 AUDIO
    TITLE "14:cjc040_0863"
    INDEX 01 01:07:35
  TRACK 42 AUDIO
    TITLE "0:"
    INDEX 01 01:11:51
  TRACK 43 AUDIO
    TITLE "12:cjc040_0864"
    INDEX 01 01:12:32
  TRACK 44 AUDIO
    TITLE "0:"
    INDEX 01 01:14:00
  TRACK 45 AUDIO
    TITLE "13:cjc040_0865"
    INDEX 01 01:14:51
  TRACK 46 AUDIO
    TITLE "0:"
    INDEX 01 01:16:44
  TRACK 47 AUDIO
    TITLE "14:cjc040_0866"
    INDEX 01 01:17:16
  TRACK 48 AUDIO
    TITLE "0:"
    INDEX 01 01:23:22
  TRACK 49 AUDIO
    TITLE "12:cjc040_0867"
    INDEX 01 01:24:04
  TRACK 50 AUDIO
    TITLE "0:"
    INDEX 01 01:25:19
  TRACK 51 AUDIO
    TITLE "13:cjc040_0868"
    INDEX 01 01:26:03
  TRACK 52 AUDIO
    TITLE "0:"
    INDEX 01 01:27:34
  TRACK 53 AUDIO
    TITLE "14:cjc040_0869"
    INDEX 01 01:28:10
  TRACK 54 AUDIO
    TITLE "0:"
    INDEX 01 01:32:47
  TRACK 55 AUDIO
    TITLE "12:cjc040_0870"
    INDEX 01 01:33:29
  TRACK 56 AUDIO
    TITLE "0:"
    INDEX 01 01:35:00
  TRACK 57 AUDIO
    TITLE "13:cjc040_0871"
    INDEX 01 01:35:57
  TRACK 58 AUDIO
    TITLE "0:"
    INDEX 01 01:37:52
  TRACK 59 AUDIO
    TITLE "14:cjc040_0872"
    INDEX 01 01:38:22
  TRACK 60 AUDIO
    TITLE "0:"
    INDEX 01 01:42:71
  TRACK 61 AUDIO
    TITLE "12:cjc040_0873"
    INDEX 01 01:43:51
  TRACK 62 AUDIO
    TITLE "0:"
    INDEX 01 01:45:63
  TRACK 63 AUDIO
    TITLE "13:cjc040_0874"
    INDEX 01 01:46:43
  TRACK 64 AUDIO
    TITLE "0:"
    INDEX 01 01:48:36
  TRACK 65 AUDIO
    TITLE "14:cjc040_0875"
    INDEX 01 01:49:16
  TRACK 66 AUDIO
    TITLE "0:"
    INDEX 01 01:52:63
  TRACK 67 AUDIO
    TITLE "12:cjc040_0876"
    INDEX 01 01:53:49
  TRACK 68 AUDIO
    TITLE "0:"
    INDEX 01 01:55:32
  TRACK 69 AUDIO
    TITLE "13:cjc040_0877"
    INDEX 01 01:56:16
  TRACK 70 AUDIO
    TITLE "0:"
    INDEX 01 01:57:49
  TRACK 71 AUDIO
    TITLE "14:cjc040_0878"
    INDEX 01 01:58:29
  TRACK 72 AUDIO
    TITLE "0:"
    INDEX 01 02:02:07
  TRACK 73 AUDIO
    TITLE "12:cjc040_0879"
    INDEX 01 02:02:69
  TRACK 74 AUDIO
    TITLE "0:"
    INDEX 01 02:05:05
  TRACK 75 AUDIO
    TITLE "13:cjc040_0880"
    INDEX 01 02:05:64
  TRACK 76 AUDIO
    TITLE "0:"
    INDEX 01 02:08:29
  TRACK 77 AUDIO
    TITLE "14:cjc040_0881"
    INDEX 01 02:09:07
  TRACK 78 AUDIO
    TITLE "0:"
    INDEX 01 02:12:29
  TRACK 79 AUDIO
    TITLE "12:cjc040_0882"
    INDEX 01 02:13:09
  TRACK 80 AUDIO
    TITLE "0:"
    INDEX 01 02:14:73
  TRACK 81 AUDIO
    TITLE "13:cjc040_0883"
    INDEX 01 02:15:56
  TRACK 82 AUDIO
    TITLE "0:"
    INDEX 01 02:18:10
  TRACK 83 AUDIO
    TITLE "14:cjc040_0884"
    INDEX 01 02:18:63
  TRACK 84 AUDIO
    TITLE "0:"
    INDEX 01 02:23:42
